<svg width="1600" height="900" viewBox="0 0 1600 900" fill="none" xmlns="http://www.w3.org/2000/svg">
  <defs>
    <linearGradient id="bg" x1="0" y1="0" x2="1600" y2="900" gradientUnits="userSpaceOnUse">
      <stop offset="0" stop-color="#0F172A"/>
      <stop offset="0.55" stop-color="#1E293B"/>
      <stop offset="1" stop-color="#334155"/>
    </linearGradient>
    <radialGradient id="goldGlow" cx="0" cy="0" r="1" gradientUnits="userSpaceOnUse" gradientTransform="translate(1260 180) rotate(121) scale(340 280)">
      <stop stop-color="#FBBF24" stop-opacity="0.44"/>
      <stop offset="1" stop-color="#FBBF24" stop-opacity="0"/>
    </radialGradient>
    <radialGradient id="mintGlow" cx="0" cy="0" r="1" gradientUnits="userSpaceOnUse" gradientTransform="translate(300 760) rotate(9) scale(420 320)">
      <stop stop-color="#2DD4BF" stop-opacity="0.28"/>
      <stop offset="1" stop-color="#2DD4BF" stop-opacity="0"/>
    </radialGradient>
  </defs>

  <rect width="1600" height="900" fill="url(#bg)"/>
  <ellipse cx="1260" cy="180" rx="340" ry="280" fill="url(#goldGlow)"/>
  <ellipse cx="300" cy="760" rx="420" ry="320" fill="url(#mintGlow)"/>

  <g opacity="0.22" stroke="#E2E8F0" stroke-width="1.6">
    <path d="M0 710C210 590 390 610 590 700C780 785 945 780 1145 680C1300 600 1445 560 1600 590"/>
    <path d="M0 760C205 655 380 665 575 745C760 820 940 815 1130 730C1288 660 1450 635 1600 660"/>
    <path d="M0 815C198 728 375 728 560 790C745 852 930 842 1118 778C1280 723 1448 704 1600 724"/>
  </g>

  <g opacity="0.9">
    <rect x="1020" y="220" width="318" height="420" rx="30" fill="#0B1220"/>
    <rect x="1042" y="244" width="274" height="260" rx="22" fill="#111827"/>
    <rect x="1066" y="278" width="228" height="148" rx="18" fill="#1F2937"/>
    <circle cx="1180" cy="350" r="50" fill="#334155"/>
    <path d="M1102 474C1128 430 1234 430 1262 474V560H1102V474Z" fill="#374151"/>
    <rect x="1058" y="526" width="246" height="14" rx="7" fill="#64748B"/>
    <rect x="1058" y="548" width="220" height="12" rx="6" fill="#475569"/>
    <rect x="1058" y="572" width="176" height="10" rx="5" fill="#334155"/>
  </g>

  <g opacity="0.92">
    <rect x="235" y="188" width="420" height="520" rx="36" fill="#0B1323"/>
    <rect x="265" y="224" width="360" height="284" rx="26" fill="#111827"/>
    <rect x="292" y="258" width="305" height="182" rx="20" fill="#1E293B"/>
    <circle cx="444" cy="340" r="56" fill="#334155"/>
    <path d="M356 500C384 450 503 450 534 500V606H356V500Z" fill="#475569"/>
    <rect x="286" y="636" width="308" height="18" rx="9" fill="#FBBF24" fill-opacity="0.9"/>
    <rect x="286" y="664" width="266" height="14" rx="7" fill="#94A3B8"/>
  </g>

  <g opacity="0.78">
    <circle cx="760" cy="190" r="4" fill="#F8FAFC"/>
    <circle cx="820" cy="130" r="3" fill="#F8FAFC"/>
    <circle cx="920" cy="165" r="2.8" fill="#F8FAFC"/>
    <circle cx="740" cy="300" r="3.4" fill="#F8FAFC"/>
    <circle cx="855" cy="252" r="2.6" fill="#F8FAFC"/>
    <circle cx="950" cy="244" r="3" fill="#F8FAFC"/>
  </g>
</svg>
